# xmcd
#
# Track frame offsets:
#	150
#	8001
#	20989
#	34420
#	45829
#	56452
#	66584
#	78935
#	91843
#	104704
#	113995
#	123427
#	135710
#	143845
#	154116
#
# Disc length: 2195 seconds
#
# Revision: 0
# Processed by: cddbd v1.5.2PL0 Copyright (c) Steve Scherf et al.
# Submitted via: dBpowerAMP V4.0
#
DISCID=cc08910f
DTITLE=Faron Young - Hank Williams Was My Hero
DYEAR=1900
DGENRE=Country
TTITLE0=Your Cheatin' Heart
TTITLE1=I Fall To Pieces
TTITLE2=Chapel In The Moonlight
TTITLE3=Is It Really Over 
TTITLE4=Once A Day
TTITLE5=Satisfied Mind
TTITLE6=Seasons Come, Seasons Go
TTITLE7=swinging Doors
TTITLE8=There Goes My Everything
TTITLE9=I'll Be There
TTITLE10=I Can't Help
TTITLE11=Are You Sincere
TTITLE12=Hey Mr Bluebird
TTITLE13=Here Comes My Baby Back Again
TTITLE14=Memphis Tennessee
EXTD=
EXTT0=
EXTT1=
EXTT2=
EXTT3=
EXTT4=
EXTT5=
EXTT6=
EXTT7=
EXTT8=
EXTT9=
EXTT10=
EXTT11=
EXTT12=
EXTT13=
EXTT14=
PLAYORDER=
